<svg width="677" height="677" viewBox="0 0 677 677" fill="none" xmlns="http://www.w3.org/2000/svg">
<circle cx="338.5" cy="338.5" r="338.5" fill="#D9D9D9"/>
<g filter="url(#filter0_d_464_6)">
<path d="M167 408C177 419 190 428.167 206 435.5C222.333 442.833 240 446.5 259 446.5C278.333 446.5 294.833 441.5 308.5 431.5C322.5 421.5 329.5 407.5 329.5 389.5C329.5 371.167 323.5 356.833 311.5 346.5C299.833 336.167 285.5 328.333 268.5 323C251.833 317.667 235 312 218 306C201.333 300 187 290.167 175 276.5C163.333 262.5 157.5 244.167 157.5 221.5C157.5 190.5 167.5 167.167 187.5 151.5C207.833 135.833 231.667 128 259 128C296.667 128 327.833 135.833 352.5 151.5L332.5 183.5C313.5 171.5 288.833 165.5 258.5 165.5C242.5 165.5 228.333 170 216 179C203.667 188 197.5 201.333 197.5 219C197.5 241.333 209 257.667 232 268C242 272.667 253 276.833 265 280.5C277.333 284.167 289.5 288.5 301.5 293.5C313.833 298.5 325 304.5 335 311.5C358 327.167 369.5 351.667 369.5 385C369.5 418 358.833 442.833 337.5 459.5C316.5 475.833 289.833 484 257.5 484C214.5 484 176.667 468.667 144 438L167 408Z" fill="black"/>
<path d="M339 558V218H444.5C472.833 218 496.833 227.833 516.5 247.5C536.167 267.167 546 291.167 546 319.5C546 347.833 536.167 371.833 516.5 391.5C496.833 411.167 472.833 421 444.5 421H379V558H339ZM443 254.5H379V384.5H443C460.333 384.5 475.167 378.167 487.5 365.5C500.167 352.5 506.5 337.167 506.5 319.5C506.5 301.833 500.167 286.667 487.5 274C475.167 261 460.333 254.5 443 254.5Z" fill="black"/>
</g>
<defs>
<filter id="filter0_d_464_6" x="112" y="128" width="446" height="481" filterUnits="userSpaceOnUse" color-interpolation-filters="sRGB">
<feFlood flood-opacity="0" result="BackgroundImageFix"/>
<feColorMatrix in="SourceAlpha" type="matrix" values="0 0 0 0 0 0 0 0 0 0 0 0 0 0 0 0 0 0 127 0" result="hardAlpha"/>
<feOffset dx="-10" dy="29"/>
<feGaussianBlur stdDeviation="11"/>
<feComposite in2="hardAlpha" operator="out"/>
<feColorMatrix type="matrix" values="0 0 0 0 0 0 0 0 0 0 0 0 0 0 0 0 0 0 0.25 0"/>
<feBlend mode="normal" in2="BackgroundImageFix" result="effect1_dropShadow_464_6"/>
<feBlend mode="normal" in="SourceGraphic" in2="effect1_dropShadow_464_6" result="shape"/>
</filter>
</defs>
</svg>
