<svg xmlns="http://www.w3.org/2000/svg" version="1.0" width="531.000000pt" height="470.000000pt" viewBox="0 0 531.000000 470.000000" preserveAspectRatio="xMidYMid meet">
<g transform="translate(0.000000,470.000000) scale(0.100000,-0.100000)" fill="#000000" stroke="none">
<path d="M2155 4230 c-22 -5 -67 -18 -100 -30 -197 -68 -370 -253 -440 -470 l-22 -65 -224 -5 c-208 -5 -227 -7 -271 -28 -44 -22 -80 -59 -107 -110 -7 -13 -21 -121 -32 -240 -10 -119 -28 -316 -39 -437 -11 -121 -25 -278 -30 -350 -6 -71 -17 -195 -25 -275 -7 -80 -17 -183 -20 -230 -4 -47 -15 -175 -25 -285 -10 -110 -21 -238 -25 -285 -3 -47 -16 -179 -27 -295 -11 -116 -21 -266 -22 -335 -1 -125 -1 -125 31 -170 19 -28 51 -56 81 -73 l50 -27 1383 0 1384 0 50 28 c59 32 102 91 113 151 8 49 2 170 -27 536 -12 138 -25 322 -31 410 -6 88 -13 176 -15 195 -3 19 -12 141 -20 270 -24 360 -17 331 -84 365 -31 16 -92 53 -135 82 -44 29 -80 52 -82 51 -3 -3 21 -367 35 -538 6 -63 13 -158 16 -210 3 -52 15 -201 25 -330 10 -129 22 -278 25 -330 3 -52 10 -149 16 -215 5 -66 10 -138 12 -160 l2 -39 -1284 -3 -1284 -3 7 72 c4 40 13 154 21 253 8 99 21 248 29 330 8 83 17 186 21 230 3 44 15 177 25 295 43 464 62 682 75 845 19 234 46 535 51 563 4 22 6 22 184 22 l180 0 0 -166 c0 -165 0 -166 -27 -198 -37 -44 -53 -88 -53 -146 0 -221 285 -304 396 -115 49 84 44 159 -16 251 l-39 61 1 156 0 157 382 -2 381 -3 3 -180 c2 -145 -1 -185 -13 -205 -40 -68 -55 -109 -55 -153 -1 -192 228 -286 355 -146 45 50 55 76 55 146 0 62 -29 136 -61 156 -17 11 -19 26 -19 164 0 138 -3 162 -31 270 -29 110 -32 130 -33 298 -1 207 3 193 -100 303 -74 77 -174 141 -272 172 -77 25 -232 35 -299 20z m215 -276 c94 -28 163 -83 224 -178 18 -28 37 -66 44 -83 l11 -33 -389 0 -389 0 22 48 c93 200 290 302 477 246z"/>
<path d="M3465 4145 c-27 -6 -59 -15 -70 -19 -73 -30 -95 -41 -95 -48 0 -4 -6 -8 -13 -8 -19 0 -92 -75 -128 -132 -39 -60 -72 -186 -66 -253 7 -77 28 -189 38 -199 5 -6 9 -18 9 -27 0 -10 3 -19 8 -21 4 -1 21 -29 37 -60 37 -72 54 -93 135 -176 82 -84 148 -142 160 -142 6 0 10 -4 10 -8 0 -5 46 -40 103 -78 56 -38 104 -72 105 -76 2 -5 10 -8 18 -8 8 0 14 -4 14 -9 0 -5 8 -12 18 -15 9 -3 33 -19 51 -35 19 -17 49 -38 67 -47 32 -17 32 -17 65 9 19 15 39 31 45 36 6 5 30 21 55 36 24 16 46 31 49 35 3 3 23 17 45 30 95 58 235 169 325 260 75 75 109 119 145 188 17 31 33 59 36 62 13 11 46 154 56 244 5 47 0 73 -34 181 -25 78 -124 205 -160 205 -7 0 -13 4 -13 8 0 5 -19 16 -42 26 -24 10 -52 21 -63 26 -49 21 -141 27 -210 15 -99 -17 -171 -53 -236 -117 -16 -16 -33 -28 -39 -28 -7 0 -26 15 -44 33 -49 50 -162 103 -237 112 -35 3 -71 8 -79 9 -8 2 -37 -2 -65 -9z" fill="#EA335C"/>
</g>
</svg>