<svg xmlns="http://www.w3.org/2000/svg" version="1.0" width="731.000000pt" height="550.000000pt" viewBox="0 0 531.000000 470.000000" preserveAspectRatio="xMidYMid meet">
<g transform="translate(0.000000,470.000000) scale(0.100000,-0.100000)" fill="currentColor" stroke="none">
<path d="M4222 4249 c-61 -12 -145 -52 -197 -94 l-44 -37 -33 25 c-95 71 -211 107 -343 107 -114 -1 -161 -11 -261 -61 -193 -95 -304 -281 -304 -509 1 -184 61 -324 229 -533 148 -183 502 -458 636 -493 117 -32 192 -5 367 130 15 12 48 37 75 56 155 112 310 257 399 377 106 141 174 318 174 450 0 371 -338 653 -698 582z m193 -234 c143 -37 242 -149 268 -302 9 -52 8 -71 -7 -120 -69 -226 -240 -411 -633 -682 l-62 -43 -78 47 c-167 102 -339 248 -453 384 -109 130 -167 246 -176 350 -22 232 174 408 402 361 33 -7 71 -18 85 -26 46 -23 112 -85 157 -145 24 -32 46 -59 49 -59 3 0 44 38 92 84 111 109 134 127 195 148 63 22 86 22 161 3z"/>
<path d="M2155 4230 c-74 -16 -159 -50 -226 -90 -132 -79 -272 -262 -319 -419 l-16 -56 -225 -5 c-208 -5 -227 -7 -271 -28 -44 -22 -80 -59 -107 -110 -7 -13 -21 -121 -32 -240 -10 -119 -28 -316 -39 -437 -11 -121 -25 -278 -30 -350 -6 -71 -17 -195 -25 -275 -7 -80 -17 -183 -20 -230 -4 -47 -15 -175 -25 -285 -10 -110 -21 -238 -25 -285 -3 -47 -16 -179 -27 -295 -11 -116 -21 -266 -22 -335 -1 -125 -1 -125 31 -170 19 -28 51 -56 81 -73 l49 -27 1383 0 1382 0 51 27 c29 16 63 45 79 68 50 72 51 93 8 620 -11 138 -24 322 -30 410 -6 88 -13 176 -15 195 -3 19 -12 141 -20 270 -24 360 -17 331 -84 365 -31 16 -92 53 -135 82 -44 29 -80 52 -82 51 -3 -3 21 -367 35 -538 6 -63 13 -158 16 -210 3 -52 15 -201 25 -330 10 -129 22 -278 25 -330 3 -52 10 -149 16 -215 5 -66 10 -137 12 -158 l2 -38 -1284 -3 -1284 -3 7 71 c4 39 13 152 21 251 8 99 21 248 29 330 8 83 17 186 21 230 3 44 15 177 25 295 43 464 62 682 75 845 19 234 46 535 51 563 4 22 6 22 184 22 l180 0 0 -166 c0 -165 0 -166 -27 -198 -37 -44 -53 -88 -53 -146 0 -221 285 -304 396 -115 49 84 44 160 -16 251 l-39 59 0 158 0 157 382 -2 382 -3 3 -180 c2 -145 -1 -185 -13 -205 -40 -68 -55 -109 -55 -153 -1 -192 228 -286 355 -146 45 50 55 76 55 146 0 62 -29 136 -61 156 -17 11 -19 26 -19 164 0 138 -3 162 -31 270 -30 110 -32 130 -33 298 -1 207 3 193 -100 303 -74 77 -174 141 -272 172 -77 25 -232 35 -299 20z m215 -276 c91 -27 158 -79 221 -172 17 -26 38 -64 45 -84 l13 -38 -389 0 -389 0 22 48 c93 200 290 302 477 246z"/>
</g>
</svg>